<svg width="256" height="256" viewBox="0 0 256 256" xmlns="http://www.w3.org/2000/svg" role="img" aria-label="pura67 · Navigator">
  <path d="M60.1 158.5 L59.5 157.3 L59.0 156.0 L58.5 154.7 L58.1 153.4 L57.9 152.0 L57.7 150.6 L57.6 149.2 L57.5 147.7 L57.6 146.3 L57.8 144.8 L58.1 143.3 L58.5 141.9 L58.9 140.4 L59.5 139.0 L60.2 137.6 L60.9 136.2 L61.8 134.9 L62.7 133.6 L63.8 132.4 L64.9 131.2 L66.1 130.1 L67.4 129.0 L68.7 128.1 L70.2 127.2 L71.7 126.4 L73.2 125.7 L74.9 125.1 L76.5 124.6 L78.2 124.2 L80.0 123.9 L81.8 123.7 L83.6 123.6 L85.4 123.7 L87.2 123.8 L89.1 124.1 L90.9 124.5 L92.7 125.1 L94.5 125.7 L96.2 126.4 L97.9 127.3 L99.6 128.3 L101.2 129.4 L102.8 130.6 L104.2 131.9 L105.6 133.4 L107.0 134.9 L108.2 136.5 L109.3 138.2 L110.4 140.0 L111.3 141.8 L112.1 143.8 L112.8 145.7 L113.3 147.8 L113.8 149.9 L114.1 152.0 L114.3 154.2 L114.3 156.3 L114.2 158.5 L113.9 160.7 L113.6 162.9 L113.0 165.1 L112.4 167.2 L111.5 169.3 L110.6 171.4 L109.5 173.4 L108.3 175.4 L106.9 177.3 L105.5 179.1 L103.9 180.8 L102.1 182.5 L100.3 184.0 L98.4 185.4 L96.3 186.7 L94.2 187.9 L92.0 189.0 L89.7 189.9 L87.4 190.6 L85.0 191.3 L82.5 191.7 L80.0 192.1 L77.5 192.2 L74.9 192.2 L72.4 192.1 L69.8 191.7 L67.3 191.2 L64.7 190.6 L62.2 189.8 L59.8 188.8 L57.4 187.6 L55.1 186.3 L52.8 184.9 L50.6 183.3 L48.5 181.5 L46.6 179.7 L44.7 177.7 L43.0 175.5 L41.3 173.3 L39.9 170.9 L38.5 168.4 L37.4 165.9 L36.3 163.2 L35.5 160.5 L34.8 157.7 L34.3 154.9 L34.0 152.0 L33.8 149.1 L33.9 146.2 L34.1 143.2 L34.5 140.3 L35.1 137.4 L35.9 134.5 L36.8 131.7 L38.0 128.9 L39.3 126.2 L40.8 123.5 L42.5 121.0 L44.4 118.5 L46.4 116.2 L48.5 114.0 L50.8 111.9 L53.3 109.9 L55.9 108.1 L58.6 106.5 L61.4 105.0 L64.3 103.7 L67.3 102.6 L70.4 101.6 L73.5 100.9 L76.7 100.3 L80.0 100.0" fill="none" stroke="#15120b" stroke-width="14" stroke-linecap="round" stroke-linejoin="round"/>
  <!-- 7 = moved further left -->
  <path d="M112 80 H 178 L 154 150" fill="none" stroke="#15120b" stroke-width="14" stroke-linecap="round" stroke-linejoin="round"/>
</svg>